<?xml version="1.0" encoding="utf-8"?><svg xmlns="http://www.w3.org/2000/svg" xmlns:xlink="http://www.w3.org/1999/xlink"><symbol viewBox="0 0 7 10" id="Shape_1" xmlns="http://www.w3.org/2000/svg"><path d="M5.134 10l1.863-1.82-3.26-3.187.004-.005-.002-.002 3.242-3.168-1.862-1.82L.01 4.994z"/></symbol><symbol viewBox="0 0 7 10" id="Shape_1_copy" xmlns="http://www.w3.org/2000/svg"><path d="M1.866 10L.003 8.18l3.26-3.187-.004-.005.002-.002L.019 1.818l1.862-1.82 5.11 4.995z"/></symbol><symbol viewBox="0 0 21 24" id="Shape_2" xmlns="http://www.w3.org/2000/svg"><path d="M8.379 18.698l-4.07-4.236L16.94.002l4.07 4.236zm-1.691 1.936L2.434 16.61l1.392-1.593 4.069 4.235zM.006 24.01l1.735-6.441 4.257 4.021z"/></symbol><symbol viewBox="0 0 14 24" id="Shape_3" xmlns="http://www.w3.org/2000/svg"><path d="M7.75 13.556l4.364 9.062-3.008 1.359-4.471-9.285L0 19.18V0l14 13.556z"/></symbol><symbol viewBox="0 0 5 7" id="arrow" xmlns="http://www.w3.org/2000/svg"><path d="M1.333 7L.002 5.727l2.33-2.231-.004-.003V3.49L.015 1.273l1.33-1.274 3.65 3.496z"/></symbol><symbol viewBox="0 0 12 9" id="arrow_pag" xmlns="http://www.w3.org/2000/svg"><path d="M11.543 4.494L7.528.65l-1.463 1.4 2.547 2.44H8.61l.004.004-2.562 2.454 1.464 1.403zM1.916 8.351l4.027-3.857L1.928.65.465 2.05l2.547 2.44H3.01l.004.004L.452 6.948z"/></symbol><symbol viewBox="0 0 6 9" id="arrow_pag2" xmlns="http://www.w3.org/2000/svg"><path d="M.452 6.948l2.562-2.454-.004-.003.002-.002L.465 2.05 1.928.65l4.015 3.844-4.027 3.857z"/></symbol><symbol viewBox="0 0 24 20" id="clients" xmlns="http://www.w3.org/2000/svg"><path d="M23.997 14.007v-.916c0-.917-1.157-1.833-1.157-1.833-2.09-.62-3.293-1.66-3.853-2.266v-.615c.68.08 2.051-.408 1.455-.701-.289-.142-.462-.401-.57-.656.07-.196.123-.401.135-.62l.015-.271a.372.372 0 00.117.024.39.39 0 00.386-.393v-.785a.39.39 0 00-.386-.393c-.01 0-.02.006-.032.007l.029-.508c.077-1.401-.954-2.607-2.31-2.607-1.355 0-2.388 1.206-2.311 2.607l.028.508c-.011-.001-.021-.007-.033-.007a.39.39 0 00-.385.393v.785a.39.39 0 00.385.393.371.371 0 00.117-.024l.014.27c.01.193.048.377.105.552-.106.277-.284.57-.599.725-.613.302.861.811 1.516.694v.622c-.532.576-1.651 1.536-3.547 2.163l3.151 2.852zm-9.408-7.174V5.58a.63.63 0 00-.634-.627c-.019 0-.034.009-.053.01l.047-.81c.128-2.235-1.569-4.159-3.797-4.159-2.229 0-3.927 1.924-3.801 4.16l.045.81c-.018-.002-.034-.01-.053-.01a.63.63 0 00-.634.626v1.253a.63.63 0 00.634.626c.068 0 .13-.019.191-.038l.024.431c.067 1.181.73 2.187 1.68 2.771v1.364c-.922.97-2.9 2.627-6.335 3.616 0 0-1.903 1.462-1.903 2.924v1.462h20.298v-1.462c0-1.462-1.903-2.924-1.903-2.924-3.435-.99-5.414-2.647-6.335-3.616v-1.366c.948-.585 1.61-1.59 1.677-2.769l.025-.431c.062.02.124.038.193.038a.63.63 0 00.634-.626z"/></symbol><symbol viewBox="0 0 24 23" id="comments" xmlns="http://www.w3.org/2000/svg"><path d="M16.668 16.679L9 22.999l1.725-5.69C4.698 16.85 0 13.163 0 8.68 0 3.887 5.373 0 12 0s12 3.887 12 8.68c0 3.597-3.023 6.682-7.332 8zM12 1.813c-5.244 0-9.494 3.075-9.494 6.868 0 3.792 4.25 6.867 9.494 6.867 5.243 0 9.494-3.075 9.494-6.867 0-3.793-4.25-6.868-9.494-6.868zM7.5 8.161h9v1.484h-9zm0-2.968h9v1.484h-9zm6.76 7.42h-4.5v-1.484h4.5z"/></symbol><symbol viewBox="0 0 7 5" id="downArrow" xmlns="http://www.w3.org/2000/svg"><path d="M0 1.333L1.273.002l2.23 2.33.004-.004.001.001L5.728.014l1.274 1.33-3.496 3.65z"/></symbol><symbol viewBox="0 0 28 25" id="download" xmlns="http://www.w3.org/2000/svg"><path d="M28.018 16.937V25H0v-8.063h2.385l.958 5.071h21.332l.958-5.071zm-14.046 2.402L3.057 7.929h6.954V4.997h7.995v2.93h7.022zm4.034-18.31h-7.995V-.035h7.995zm0 2.965h-7.995V1.955h7.995z"/></symbol><symbol viewBox="0 0 24 17" id="email" xmlns="http://www.w3.org/2000/svg"><path d="M24 0v17l-9.545-7.78zM1.69.043h20.62L12 11.015zM0 17V0l9.545 9.22zm12-4.636l1.889-2.335 8.611 6.97h-21l8.612-6.97z"/></symbol><symbol viewBox="0 0 21 17" id="fullscreen" xmlns="http://www.w3.org/2000/svg"><path d="M16.624 16.99v-1.316h2.882v-2.72h1.486v4.037zm2.882-15.677h-2.882V-.004h4.368v4.036h-1.486zM1.492 4.032H.006V-.004h4.368v1.317H1.492zm1.396-1.317H18.11v11.557H2.888zm1.486 10.24h12.25V4.032H4.374zm1.441-7.521h9.413v6.119H5.815zm-4.323 10.24h2.882v1.317H.006v-4.036h1.486z"/></symbol><symbol viewBox="0 0 20 26" id="link" xmlns="http://www.w3.org/2000/svg"><path d="M18.63 4.076l-5.197-3a2 2 0 00-2.732.732L7.2 7.87a2 2 0 00.732 2.732l.866.5 1-1.732a1 1 0 01-.366-1.366l2.5-4.33a1 1 0 011.366-.366l3.464 2a1 1 0 01.366 1.366l-2.5 4.33a1 1 0 01-1.366.366l-1 1.732.866.5a2 2 0 002.732-.732l3.5-6.062a2 2 0 00-.732-2.732zM8.896 16.933l4-6.929a1 1 0 00-1.732-1l-4 6.929a1 1 0 101.732 1zm-1.098-4.099l-.866-.5a2 2 0 00-2.732.733L.7 19.129a2 2 0 00.732 2.732l5.196 3a2 2 0 002.732-.732l3.5-6.062a2 2 0 00-.732-2.733l-.866-.5-1 1.733a1 1 0 01.366 1.366l-2.5 4.33a1 1 0 01-1.366.366l-3.464-2a1 1 0 01-.366-1.366l2.5-4.33a1 1 0 011.366-.366z"/></symbol><symbol viewBox="0 0 29 26" id="paint_brush" xmlns="http://www.w3.org/2000/svg"><path d="M28.984.14c-.513-.578-2.878.837-5.576 3.213-1.516 1.336-5.71 5.064-9.1 8.08l3.746 3.803c2.95-3.614 6.667-8.162 8.021-9.809 2.377-2.89 3.23-4.966 2.91-5.287zM13.54 12.117l-3.304 2.94 4.436 4.323 2.729-3.343zm.48 8.062l-4.543-4.427c-.27.02-4.683.412-4.683 4.753 0 4.478-4.801 3.873-4.801 3.873s11.442 5.68 14.018-4.2v.012l.009-.011z"/></symbol><symbol viewBox="0 0 26 24" id="plane_2" xmlns="http://www.w3.org/2000/svg"><path d="M26 13.006l-8.853 2.77-10.902-9.56 8.448 10.297-9.467 3.018L.352.182zm-11.008 5.025v5.324l-3.116-4.4z"/></symbol><symbol viewBox="0 0 35 25" id="preview" xmlns="http://www.w3.org/2000/svg"><path d="M17.325.825c10 0 17.48 11.658 17.48 11.658s-7.543 11.659-17.48 11.659C6.699 24.142.162 12.483.162 12.483S6.762.825 17.325.825zm-5.146 11.67a5.239 5.239 0 1010.478.001 5.239 5.239 0 00-10.478 0zm5.27-2.618a2.607 2.607 0 11.001 5.215 2.607 2.607 0 010-5.215z"/></symbol><symbol viewBox="0 0 24 24" id="submit" xmlns="http://www.w3.org/2000/svg"><path d="M24 12c0 6.628-5.373 12-12 12-6.628 0-12-5.372-12-12S5.371 0 12 0c6.627 0 12 5.372 12 12zM11.36 9.17H4.51v5.884h6.85v4.097l9.456-7.04-9.456-7.04z"/></symbol><symbol viewBox="0 0 16 16" id="view_list" xmlns="http://www.w3.org/2000/svg"><path d="M0 0h16v4H0zm0 6h16v4H0zm0 6h16v4H0z"/></symbol></svg>